#!OML:ASF H:\Punching\Project 1\Capture day 1\Session 1\female.ASF
:FULLY-SPECIFIED
:DEGREES
1825
root 0.78934 15.8007 4.04883 13.4302 -14.6942 -4.6956
lowerback 0.35361 -2.20882 1.08082
upperback -6.21769 -2.93147 0.350956
thorax -6.69438 -1.51488 -0.0549571
lowerneck -14.085 -5.52067 0.914232
upperneck 22.8342 -8.2107 0.596174
head 9.51984 -3.71232 -0.956258
rclavicle 4.05272e-014 1.90833e-014
rhumerus -40.7435 -11.3979 -73.5416
rradius 29.512
rwrist 10.5971
rhand 3.25548 -7.17502
rfingers 7.12502
rthumb 28.7047 -34.9892
lclavicle 4.05272e-014 1.90833e-014
lhumerus -40.268 -2.55435 75.9157
lradius 65.2283
lwrist 6.14121
lhand -8.83907 20.1088
lfingers 7.12502
lthumb 17.1013 49.3761
rfemur -24.758 7.84747 15.4279
rtibia 33.8903
rfoot -23.0499 -13.4004
rtoes -10.8968
lfemur -18.3926 -7.45592 -17.671
ltibia 28.0307
lfoot -20.7098 15.6097
ltoes 8.53963
1826
root 0.78942 15.7906 4.02701 13.45 -15.0544 -4.57671
lowerback 0.197721 -2.19124 1.11017
upperback -6.27518 -2.91366 0.277528
thorax -6.67118 -1.51099 -0.153813
lowerneck -13.9967 -5.59259 0.763306
upperneck 22.96 -8.25271 0.481108
head 9.54814 -3.75721 -0.976085
rclavicle -1.93815e-014 -1.19271e-014
rhumerus -40.7082 -11.1734 -73.6897
rradius 29.6223
rwrist 10.3929
rhand 2.36173 -6.93606
rfingers 7.12502
rthumb 27.8505 -34.8917
lclavicle -1.93815e-014 -1.19271e-014
lhumerus -40.2477 -1.29023 75.4333
lradius 61.7789
lwrist 4.92208
lhand -9.50941 20.2024
lfingers 7.12502
lthumb 16.456 49.5245
rfemur -24.2912 7.97106 15.4452
rtibia 32.844
rfoot -23.3351 -13.6555
rtoes -10.8599
lfemur -18.5943 -7.15124 -17.8222
ltibia 28.2808
lfoot -20.8451 15.5804
ltoes 8.61607
1827
root 0.788688 15.7803 4.00629 13.4642 -15.4504 -4.45742
lowerback 0.0365975 -2.15872 1.15368
upperback -6.32929 -2.87592 0.194548
thorax -6.64226 -1.49835 -0.271908
lowerneck -13.9108 -5.65566 0.626185
upperneck 23.0835 -8.28525 0.364282
head 9.57554 -3.79689 -0.997662
rclavicle -3.20292e-014 3.18055e-015
rhumerus -40.6499 -10.979 -73.8133
rradius 29.7093
rwrist 10.2318
rhand 1.49954 -6.70977
rfingers 7.12502
rthumb 27.0259 -34.7961
lclavicle -3.20292e-014 3.18055e-015
lhumerus -40.2677 0.0737954 74.8846
lradius 58.3399
lwrist 3.64136
lhand -10.1771 20.4261
lfingers 7.12502
lthumb 15.8131 49.8003
rfemur -23.8396 8.16803 15.4519
rtibia 31.8057
rfoot -23.5022 -13.918
rtoes -10.7712
lfemur -18.7692 -6.83084 -17.9786
ltibia 28.5152
lfoot -20.9933 15.5793
ltoes 8.66763
1828
root 0.787092 15.7697 3.98657 13.4667 -15.8839 -4.32941
lowerback -0.12202 -2.11328 1.19977
upperback -6.38224 -2.82136 0.101954
thorax -6.61374 -1.47782 -0.402193
lowerneck -13.822 -5.70752 0.508354
upperneck 23.2015 -8.3045 0.239425
head 9.59932 -3.82995 -1.02326
rclavicle -2.15557e-014 -5.56597e-015
rhumerus -40.5675 -10.8092 -73.9145
rradius 29.7681
rwrist 10.1053
rhand 0.685052 -6.49131
rfingers 7.12502
rthumb 26.2464 -34.6961
lclavicle -2.15557e-014 -5.56597e-015
lhumerus -40.3503 1.53218 74.2602
lradius 54.947
lwrist 2.33553
lhand -10.8274 20.7675
lfingers 7.12502
lthumb 15.1867 50.1902
rfemur -23.408 8.41399 15.4461
rtibia 30.8058
rfoot -23.5401 -14.18
rtoes -10.6352
lfemur -18.9112 -6.49917 -18.1496
ltibia 28.7304
lfoot -21.1597 15.6153
ltoes 8.67733
